<?xml version="1.0" standalone="no"?>
<!DOCTYPE svg PUBLIC "-//W3C//DTD SVG 20010904//EN"
 "http://www.w3.org/TR/2001/REC-SVG-20010904/DTD/svg10.dtd">
<svg version="1.0" xmlns="http://www.w3.org/2000/svg"
 width="15" height="15" viewBox="0 0 512.000000 512.000000"
 preserveAspectRatio="xMidYMid meet">

<g transform="translate(0.000000,512.000000) scale(0.100000,-0.100000)"
fill="#000000" stroke="none">
<path d="M2325 5109 c-163 -16 -415 -65 -415 -81 0 -4 7 -5 15 -1 10 3 15 1
13 -7 -2 -7 5 -14 15 -15 9 -2 17 1 17 7 0 6 6 5 15 -2 11 -9 15 -9 15 -1 0 7
5 9 10 6 6 -4 8 -11 5 -16 -4 -5 2 -6 12 -2 16 6 16 5 4 -10 -8 -10 -9 -17 -3
-17 6 0 14 5 17 10 5 8 11 7 21 -1 9 -7 14 -8 14 -1 0 13 44 10 48 -4 8 -22
24 -31 49 -26 17 3 24 1 19 -6 -4 -7 1 -10 14 -7 11 2 22 0 25 -6 11 -17 23
-9 18 14 -3 15 1 12 12 -10 9 -17 23 -34 31 -37 10 -4 12 -2 8 6 -5 8 -2 9 9
5 9 -3 19 -2 22 4 4 5 13 3 21 -6 9 -8 20 -13 25 -10 5 4 9 1 9 -4 0 -6 6 -10
13 -8 6 1 11 -4 9 -11 -2 -9 2 -11 10 -6 25 16 53 14 65 -3 10 -13 13 -14 13
-2 1 12 2 12 13 -1 18 -22 37 -23 54 -3 12 15 12 13 0 -8 -18 -30 -12 -45 10
-27 8 6 25 12 38 13 20 0 22 -2 12 -14 -10 -12 -8 -13 16 -7 21 5 29 2 34 -11
6 -15 7 -15 14 3 7 17 8 17 8 -4 1 -13 5 -20 11 -17 6 4 8 12 4 18 -3 7 1 3
10 -7 8 -10 13 -24 10 -30 -3 -6 1 -2 10 8 14 17 16 17 22 3 3 -10 13 -17 21
-17 8 0 12 3 10 8 -3 4 6 8 20 9 19 1 22 -1 12 -8 -12 -7 -12 -9 1 -10 8 -1
18 -1 22 0 4 0 5 -5 2 -12 -3 -8 2 -14 10 -14 8 0 13 3 11 7 -5 9 27 6 43 -4
6 -4 12 -3 12 2 0 5 6 9 14 9 8 0 13 -8 11 -19 -4 -21 5 -23 24 -5 11 10 13 9
8 -6 -6 -15 -3 -16 12 -7 14 7 22 6 32 -6 7 -8 21 -20 32 -26 17 -9 19 -8 14
6 -5 13 -2 15 20 10 20 -5 24 -4 19 7 -4 8 2 3 13 -10 15 -17 27 -22 45 -17
25 6 53 -15 42 -33 -4 -5 -2 -12 4 -16 9 -5 14 6 12 26 -1 3 14 1 33 -5 19 -6
29 -13 24 -17 -20 -12 22 -19 44 -7 20 10 21 9 9 -5 -11 -13 -11 -15 0 -13 7
1 19 6 27 10 10 6 12 5 7 -2 -4 -7 -1 -12 8 -12 9 0 16 -5 16 -11 0 -8 5 -7
15 1 13 11 18 10 30 -6 13 -18 14 -18 20 -1 6 14 10 15 21 6 8 -6 14 -17 14
-23 0 -6 -5 -4 -10 4 -8 13 -10 13 -10 -2 0 -10 7 -16 19 -15 11 0 18 4 15 8
-2 4 5 7 16 6 15 -1 20 -7 16 -20 -3 -14 -1 -16 8 -8 7 6 16 8 20 4 4 -4 4 0
0 10 -5 13 -2 16 10 11 15 -6 18 -24 4 -34 -4 -3 3 -12 15 -19 20 -13 21 -13
8 2 -11 14 -11 18 5 23 11 4 23 9 28 12 5 3 7 -2 3 -10 -4 -12 0 -15 19 -13
13 1 27 -2 30 -6 11 -19 43 -29 50 -17 4 7 3 8 -4 4 -7 -4 -12 -2 -12 3 0 17
18 13 29 -6 8 -14 11 -15 11 -3 0 12 3 11 11 -3 6 -9 14 -15 20 -12 5 4 9 1 9
-5 0 -6 5 -8 10 -5 6 4 7 12 4 18 -4 7 -3 8 2 4 5 -5 9 -14 9 -20 0 -7 3 -12
6 -12 4 0 17 -9 29 -20 12 -11 21 -15 20 -10 -5 21 1 32 15 32 8 0 11 -5 8
-10 -4 -6 2 -8 15 -5 12 4 20 1 19 -4 -1 -6 4 -13 12 -16 8 -2 11 0 8 5 -3 5
0 10 7 10 8 0 11 -8 8 -21 -5 -19 -4 -19 11 -7 11 9 17 10 17 2 0 -15 33 -14
49 2 7 6 12 8 11 2 -2 -5 -2 -19 -1 -30 2 -18 3 -18 16 5 8 14 14 19 15 11 0
-8 6 -11 16 -7 13 5 14 4 6 -7 -16 -19 -4 -29 19 -16 14 7 19 6 19 -3 0 -9 3
-9 10 2 8 13 10 13 10 -1 0 -9 6 -17 13 -16 37 1 47 -4 47 -25 0 -18 2 -20 9
-8 6 8 7 18 5 22 -3 4 6 8 20 8 14 0 26 -5 26 -11 0 -5 -4 -7 -10 -4 -6 3 -7
-1 -4 -9 6 -16 24 -22 24 -8 0 4 14 8 30 9 36 3 39 -4 8 -17 -22 -8 -21 -9 5
-7 15 1 27 5 27 9 0 4 5 8 11 8 5 0 8 -4 5 -9 -3 -5 4 -11 16 -14 31 -9 -104
126 -235 234 -512 421 -1195 630 -1852 568z m732 -399 c-1 -21 -10 -18 -13 5
-1 8 2 15 6 15 5 0 8 -9 7 -20z m983 -275 c7 -9 8 -15 2 -15 -5 0 -12 7 -16
15 -3 8 -4 15 -2 15 2 0 9 -7 16 -15z"/>
<path d="M1860 5016 c0 -2 7 -7 16 -10 8 -3 12 -2 9 4 -6 10 -25 14 -25 6z"/>
<path d="M3105 4680 c-16 -7 -17 -9 -3 -9 9 -1 20 4 23 9 7 11 7 11 -20 0z"/>
<path d="M3183 4655 c0 -8 4 -12 9 -9 5 3 6 10 3 15 -9 13 -12 11 -12 -6z"/>
</g>
</svg>
