<?xml version="1.0" standalone="no"?>
<!DOCTYPE svg PUBLIC "-//W3C//DTD SVG 20010904//EN"
 "http://www.w3.org/TR/2001/REC-SVG-20010904/DTD/svg10.dtd">
<svg version="1.0" xmlns="http://www.w3.org/2000/svg"
 width="512.000000pt" height="512.000000pt" viewBox="0 0 512.000000 512.000000"
 preserveAspectRatio="xMidYMid meet">

<g transform="translate(0.000000,512.000000) scale(0.100000,-0.100000)"
fill="#000000" stroke="none">
<path d="M1333 4903 c9 -2 23 -2 30 0 6 3 -1 5 -18 5 -16 0 -22 -2 -12 -5z"/>
<path d="M3763 4903 c9 -2 23 -2 30 0 6 3 -1 5 -18 5 -16 0 -22 -2 -12 -5z"/>
<path d="M212 3775 c0 -16 2 -22 5 -12 2 9 2 23 0 30 -3 6 -5 -1 -5 -18z"/>
<path d="M4902 3770 c0 -14 2 -19 5 -12 2 6 2 18 0 25 -3 6 -5 1 -5 -13z"/>
<path d="M3673 1703 c20 -2 54 -2 75 0 20 2 3 4 -38 4 -41 0 -58 -2 -37 -4z"/>
<path d="M3538 1493 c7 -3 16 -2 19 1 4 3 -2 6 -13 5 -11 0 -14 -3 -6 -6z"/>
<path d="M210 1418 c0 -313 116 -612 321 -832 188 -201 454 -334 734 -366 116
-13 665 -13 685 0 11 7 6 10 -20 10 -28 0 -32 3 -20 11 12 9 11 10 -8 6 -12
-3 -20 -1 -16 4 5 8 -9 13 -28 10 -4 0 -5 5 -2 13 3 8 -3 16 -15 19 -12 3 -21
13 -21 24 -1 17 -2 17 -17 -2 -11 -14 -14 -15 -10 -3 4 10 -1 18 -14 21 -10 3
-19 13 -19 22 0 10 -5 15 -13 12 -7 -3 -21 1 -32 9 -10 8 -28 14 -39 15 -12 0
-15 3 -9 6 10 3 10 8 -1 19 -12 11 -53 14 -201 14 -205 0 -283 11 -419 61
-313 114 -554 410 -606 744 -7 44 -19 87 -28 95 -8 8 -12 9 -8 3 5 -9 2 -11
-8 -7 -9 3 -15 9 -14 12 2 21 -4 31 -16 26 -8 -3 -16 3 -19 15 -4 15 -10 19
-23 14 -14 -5 -16 -3 -11 11 5 14 3 17 -8 12 -9 -3 -29 8 -51 29 -20 19 -38
35 -40 35 -2 0 -4 -28 -4 -62z"/>
<path d="M4902 1350 c0 -14 2 -19 5 -12 2 6 2 18 0 25 -3 6 -5 1 -5 -13z"/>
<path d="M773 1036 c47 -77 172 -201 256 -257 74 -48 192 -100 261 -114 l35
-7 -22 21 c-13 12 -26 22 -30 22 -5 0 -12 7 -16 15 -4 8 -30 27 -56 42 -26 15
-50 32 -52 37 -2 6 -8 9 -12 7 -4 -1 -15 4 -23 12 -8 9 -21 13 -30 9 -8 -3
-14 -2 -13 3 4 21 -2 34 -15 34 -8 0 -17 7 -20 16 -4 9 -9 14 -13 10 -3 -3
-12 3 -20 14 -15 21 -39 29 -27 8 4 -7 3 -8 -5 -4 -6 4 -9 12 -6 17 6 9 -32
28 -50 24 -5 -1 -7 0 -2 2 15 9 5 21 -38 43 -24 12 -42 27 -39 31 3 5 -4 9
-15 9 -12 0 -21 6 -21 14 0 8 -13 21 -29 29 l-29 15 31 -52z"/>
<path d="M3763 213 c9 -2 23 -2 30 0 6 3 -1 5 -18 5 -16 0 -22 -2 -12 -5z"/>
</g>
</svg>
